<?xml version="1.0" encoding="utf-8"?>
<!-- Generator: Adobe Illustrator 21.0.0, SVG Export Plug-In . SVG Version: 6.00 Build 0)  -->
<svg version="1.1" id="Layer_1" xmlns="http://www.w3.org/2000/svg" xmlns:xlink="http://www.w3.org/1999/xlink" x="0px" y="0px"
	 viewBox="0 0 100 100" style="enable-background:new 0 0 100 100;" xml:space="preserve">
<style type="text/css">
	.st0{fill:#878787;}
</style>
<path class="st0" d="M49.9,0C34.4,0,21.8,12.8,21.8,28.6c0,2.8,0.4,5.5,1.1,8c0,0.3,1.3,3.6,1.8,4.6l23.5,56.6c1,2.9,2.5,2.9,3.5,0
	l23.5-56.6c0.5-1,1.7-4.4,1.8-4.6c0.7-2.5,1.1-5.2,1.1-8C78,12.8,65.4,0,49.9,0z M49.9,42.6c-7.8,0-14.1-6.3-14.1-14.1
	s6.3-14.1,14.1-14.1S64,20.7,64,28.5S57.7,42.6,49.9,42.6z"/>
</svg>
